<?xml version="1.0" standalone="no"?>
<!DOCTYPE svg PUBLIC "-//W3C//DTD SVG 20010904//EN"
 "http://www.w3.org/TR/2001/REC-SVG-20010904/DTD/svg10.dtd">
<svg version="1.0" xmlns="http://www.w3.org/2000/svg"
 width="92.000000pt" height="77.000000pt" viewBox="0 0 92.000000 77.000000"
 preserveAspectRatio="xMidYMid meet">

<g transform="translate(0.000000,77.000000) scale(0.100000,-0.100000)"
fill="#000000" stroke="none">
<path d="M0 385 l0 -385 460 0 460 0 0 385 0 385 -460 0 -460 0 0 -385z m417
229 c44 -36 67 -93 58 -144 -6 -33 -64 -102 -94 -111 -10 -4 0 -31 43 -108 31
-56 54 -106 51 -112 -16 -24 -38 0 -93 99 l-59 107 -59 5 c-44 4 -60 9 -62 21
-3 14 10 17 83 20 83 4 88 5 116 37 21 23 29 42 29 70 0 79 -54 112 -180 112
l-80 0 0 -240 c0 -233 -1 -240 -20 -240 -19 0 -20 7 -20 253 0 140 3 257 8
261 4 4 59 6 124 4 113 -3 117 -4 155 -34z m421 14 c3 -16 -8 -18 -122 -18
l-126 0 0 -95 0 -94 102 -3 c89 -3 103 -5 106 -20 3 -16 -7 -18 -102 -18
l-106 0 0 -100 0 -99 122 -3 c108 -3 123 -5 126 -21 3 -16 -9 -17 -141 -17
-123 0 -146 2 -151 16 -3 9 -6 118 -6 243 0 166 3 230 12 239 9 9 51 12 148
10 119 -3 135 -5 138 -20z"/>
</g>
</svg>
